mtllib materials.mtl
v 0.04990322 0.05500007 -0.04207107
v 0.1216119 0.05500007 -0.04207107
v 0.1299032 0.05500007 -0.04207107
v 0.1299032 0.06499994 -0.0420711
v 0.0499032 0.06499994 -0.0420711
v 0.04990323 0.05500007 0.03792894
v 0.04990322 0.06499994 0.03792895
v 0.1299033 0.06499994 0.03792894
v 0.1299032 0.05500007 0.03792892
v 0.1210784 0.05500007 0.03792894
v 0.1211347 0.05500007 0.02948949
v 0.121565 0.05500007 -0.03504324
v 0.1299033 0.08500004 -0.04207128
v 0.04990318 0.08500004 -0.04207128
v -0.08968915 -0.06136245 -0.03988445
v -0.08903953 -0.07133359 -0.04027167
v 0.1299032 0.05500007 -0.03507581
v 0.1299033 0.05500007 0.02832547
v 0.1299033 0.06499994 0.03168046
v 0.1299033 0.06499994 -0.03584909
v 0.04990321 0.06499994 0.0310269
v 0.04990318 0.06499994 -0.03504169
v 0.1299033 0.08500004 0.03792906
v 0.1299033 0.08500004 0.03168058
v 0.1299033 0.08500004 -0.03584924
v 0.04990318 0.08500004 -0.03504184
v -0.08968915 -0.06136245 -0.03988445
v -0.08944581 -0.06161922 -0.03286394
v 0.04990321 0.08500004 0.03792907
v -0.08715834 -0.06403273 0.0331209
v -0.08691938 -0.06428492 0.04001421
v 0.0499032 0.08500004 0.03102702
v -0.09098838 -0.04141951 -0.03911012
v -0.09074503 -0.04167628 -0.03208959
v -0.1294725 -0.06400406 -0.03860214
v -0.1292292 -0.06426084 -0.03158164
v -0.08944581 -0.06161922 -0.03286394
v -0.08715834 -0.06403273 0.0331209
v -0.08691938 -0.06428492 0.04001421
v -0.08626975 -0.07425612 0.03962697
v -0.1294725 -0.06400418 -0.03860217
v -0.1288228 -0.07397532 -0.03898939
v -0.08845755 -0.04408991 0.03389552
v -0.08821858 -0.04434204 0.04078884
v -0.1269416 -0.06667435 0.03440337
v -0.1267027 -0.06692654 0.04129668
v -0.1307717 -0.04406112 -0.03782782
v -0.1305284 -0.0443179 -0.03080729
v -0.1292291 -0.06426096 -0.03158167
v -0.1269416 -0.06667447 0.0344032
v -0.1267027 -0.06692666 0.04129651
v -0.1260531 -0.07689786 0.04090926
v -0.1282409 -0.04673153 0.03517799
v -0.1280019 -0.04698372 0.04207131
v 0.1299033 -0.08499992 0.03792936
v 0.1210784 -0.08499992 0.03792939
v 0.1299032 -0.08499998 -0.0420706
v 0.1299032 -0.08499998 -0.03507534
v 0.1216119 -0.08499998 -0.0420706
v 0.1215651 -0.08499998 -0.03504276
v 0.1299033 0.03750002 0.02832553
v 0.1299033 0.02875006 0.02832556
v 0.1299033 0.0200001 0.02832559
v 0.1299033 0.002500057 0.02832565
v 0.1299033 -0.006250024 0.02832568
v 0.1299033 -0.01499999 0.02832571
v 0.1299033 -0.03249991 0.02832577
v 0.1299033 -0.04124993 0.0283258
v 0.1299033 -0.04999995 0.02832583
v 0.1299033 -0.08499992 0.02832592
v 0.1211347 0.03750002 0.02948955
v 0.1211347 -0.08499992 0.02948993
v 0.1211347 -0.04999995 0.02948985
v 0.1211347 -0.04124993 0.02948982
v 0.1211347 -0.03249991 0.02948979
v 0.1211347 -0.01499999 0.02948973
v 0.1211347 -0.006250024 0.0294897
v 0.1211347 0.002500057 0.02948967
v 0.1211347 0.0200001 0.02948961
v 0.1211347 0.02875006 0.02948958
v 0.1218302 -0.05000019 -0.04060248
v 0.1218302 -0.04125017 -0.04060251
v 0.1218301 -0.01500022 -0.04060259
v 0.1218301 -0.006250262 -0.04060262
v 0.1220031 0.01999986 -0.03929818
v 0.1220031 0.02874982 -0.03929821
v 0.1307717 0.01999986 -0.0404622
v 0.1307717 0.02874982 -0.04046223
v 0.1305988 -0.01500022 -0.04176661
v 0.1305988 -0.006250262 -0.04176664
v 0.1305988 -0.05000019 -0.04176649
v 0.1305988 -0.04125017 -0.04176652
vn -1.192093E-07 -1.748456E-07 -1
vn 1.192093E-07 1.748456E-07 1
vn -1.748456E-07 -1 1.748456E-07
vn 2.048901E-08 -8.931097E-06 -1
vn -0.01565914 -4.097271E-06 -0.9998774
vn 1 -1.748456E-07 -1.192093E-07
vn 1.748456E-07 1 -1.748456E-07
vn 1 -7.336527E-07 2.849098E-06
vn 1 -7.33656E-07 -2.601657E-06
vn 0.01009201 7.433505E-06 0.9999491
vn 0.6711019 -0.7413651 1.689691E-06
vn 1.748456E-07 1 -1.748456E-07
vn 2.123416E-07 -5.915508E-06 1
vn 0.6854596 -0.7281108 -7.769037E-07
vn 0.008169397 5.579627E-06 -0.9999667
vn 1.748456E-07 1 -1.748456E-07
vn -0.02100465 -9.064837E-06 -0.9997795
vn -0.6692361 0.7430498 -1.86405E-07
vn 0.01561933 7.398031E-06 0.999878
vn 0.06496166 -0.9971362 -0.03872186
vn -0.6724935 0.7401032 -1.505406E-06
vn -0.6854593 0.728111 1.781739E-07
vn -0.6868021 0.7268445 8.045591E-07
vn 0.0124703 -1.742456E-06 0.9999222
vn 0.6884467 -0.725287 1.040461E-08
vn -0.0346163 0.03652994 -0.9987329
vn -0.02073329 5.808822E-06 -0.9997851
vn -0.6835273 0.729925 1.092578E-06
vn 0.01524453 -5.985967E-06 0.9998838
vn 0.0649616 -0.9971358 -0.03873231
vn 0.671528 -0.7392686 -0.05032036
vn -0.6712106 0.7395568 0.05031911
vn -0.03461643 0.03652259 -0.9987331
vn -0.06496162 0.9971362 0.03872214
vn 0.03461658 -0.03652402 0.998733
vn -0.9972872 -0.06621946 0.03214535
vn -0.06496478 0.997136 0.0387221
vn -0.06496468 0.9971359 0.03872405
vn -0.06496467 0.9971356 0.03873252
vn 0.03461687 -0.0365323 0.9987328
vn 0.06496464 -0.9971359 -0.03872536
vn -0.9972871 -0.06622113 0.03214406
vn -0.03462123 0.03653739 -0.9987324
vn -0.06496194 0.997136 0.03872724
vn 0.03462147 -0.03653773 0.9987324
vn -0.9972871 -0.06621899 0.03214715
vn 1.385625E-06 3.184014E-06 1
vn 1 3.802629E-08 -5.429637E-07
vn -1.748456E-07 -1 1.748456E-07
vn 1.054316E-07 -3.402211E-06 -1
vn -0.9999778 -8.72986E-08 -0.006667141
vn 0.003906685 3.422497E-06 0.9999924
vn -1.748456E-07 -1 1.748456E-07
vn 1 1.045567E-07 1.497829E-06
vn -0.1315935 -3.125637E-06 -0.9913038
vn -0.9999778 -7.278249E-08 -0.006669638
vn -1.748456E-07 -1 1.748456E-07
vn -0.1315935 -3.125637E-06 -0.9913038
vn -0.1315935 -3.125637E-06 -0.9913038
vn -0.1315935 -3.125637E-06 -0.9913038
vn -0.1315935 -3.125637E-06 -0.9913038
vn -0.1315935 -3.125637E-06 -0.9913038
vn -0.1315935 -3.125637E-06 -0.9913038
vn -0.9999508 -5.264962E-08 -0.009922088
vn -0.9999508 -5.657967E-08 -0.009921427
vn -0.9999203 -7.806575E-08 -0.01262347
vn 1.10998E-06 -1 3.365748E-06
vn 0.9999203 -1.409528E-06 0.01262378
vn -5.547014E-07 1 -3.365749E-06
vn -0.1315935 -3.280375E-06 -0.9913038
vn 5.519137E-07 -1 3.305332E-06
vn 0.9999508 -1.861197E-06 0.009921864
vn -8.806296E-07 1 -3.305332E-06
vn -0.131594 -3.359456E-06 -0.9913037
vn -2.7076E-07 -1 3.308525E-06
vn 0.9999508 -1.583429E-07 0.009922312
vn -1.030204E-08 1 -3.308525E-06
vn -0.1315938 -3.621183E-06 -0.9913038
vt -0.09123158 0.05679613
vt -0.08802467 0.06320995
vt -0.08765387 0.06395155
vt -0.08854829 0.06439876
vt -0.092126 0.05724334
vt 0.09123158 0.05679613
vt 0.092126 0.05724334
vt 0.08854829 0.06439876
vt 0.08765387 0.06395155
vt 0.08804853 0.06316223
vt -0.02488888 0.01950748
vt -0.01735495 0.01681679
vt -0.01496107 0.02351965
vt -0.01575395 0.02380881
vt -0.02181679 0.02601981
vt -0.02247706 0.02626059
vt -0.09212609 0.05724369
vt -0.08854836 0.0643991
vt -0.09033722 0.06529354
vt -0.09391495 0.05813812
vt -0.09114651 0.05701694
vt -0.09204189 0.0574622
vt -0.08694375 0.03933511
vt -0.08602174 0.03894983
vt 0.03778046 0.1045066
vt 0.03834968 0.1041001
vt 0.04350886 0.1004149
vt 0.04429033 0.09985675
vt 0.04487156 0.1006705
vt 0.0443631 0.1010337
vt 0.03886799 0.1049587
vt 0.03836169 0.1053204
vt 0.02161224 0.02683215
vt 0.0152527 0.02456089
vt 0.01800494 0.01704893
vt 0.0242269 0.01927106
vt 0.04436341 0.1010335
vt 0.04487186 0.1006704
vt 0.04603436 0.1022978
vt 0.0455259 0.102661
vt 0.03836133 0.1053205
vt 0.03886764 0.1049589
vt 0.0400301 0.1065864
vt 0.03952379 0.106948
vt 0.08850773 0.06453802
vt 0.09207549 0.05737717
vt 0.09386562 0.05826907
vt 0.09029786 0.06542991
vt -0.002659291 0.08505336
vt -0.003326499 0.08527463
vt -0.009045912 0.06733387
vt -0.008379295 0.06711365
vt 0.0248889 0.01950749
vt 0.02219821 0.02704143
vt 0.02161225 0.02683216
vt 0.02422691 0.01927106
vt 0.08854828 0.06439855
vt 0.09212597 0.05724312
vt 0.09391484 0.05813755
vt 0.09033714 0.06529298
vt 0.004855464 0.08409436
vt 0.004200714 0.08431273
vt -0.001556336 0.06638919
vt -0.00090238 0.06617121
vt -0.09214143 0.0571861
vt -0.08855514 0.06433752
vt -0.09034295 0.06523407
vt -0.09392923 0.05808264
vt 0.01525269 0.02456089
vt 0.01466424 0.02435073
vt 0.01735493 0.01681679
vt 0.01800493 0.01704893
vt -0.09201227 0.05753914
vt -0.09380371 0.05842839
vt -0.08874585 0.04018478
vt -0.08690105 0.03941587
vt 0.00298146 0.08636922
vt 0.002314203 0.08614809
vt 0.007988468 0.06808768
vt 0.008655162 0.06830768
vt 0.09383784 0.05834248
vt 0.09204704 0.05745193
vt 0.08691517 0.03933517
vt 0.08875923 0.04010577
vt -0.0300147 0.01330117
vt -0.03068289 0.01351944
vt -0.03192157 0.009727469
vt -0.03125338 0.009509197
vt 0.003269759 0.08540581
vt 0.002602587 0.08518444
vt 0.00832542 0.06724559
vt 0.008991981 0.06746598
vt 0.002066713 0.086403
vt -0.00420076 0.0843127
vt 0.001556293 0.06638916
vt -0.00425667 0.08443756
vt -0.004911385 0.08421908
vt 0.0008494607 0.06629686
vt 0.00150336 0.06651501
vt 0.09210378 0.0573274
vt 0.09120858 0.05688175
vt 0.08570655 0.03893019
vt 0.08662833 0.03931597
vt 0.00476211 0.08371875
vt -0.002825995 0.08625265
vt -0.001023603 0.06585659
vt -0.08520008 0.03791088
vt -0.0861276 0.03828458
vt -0.08761838 0.03458446
vt -0.08669086 0.03421076
vt -0.09208105 0.05739892
vt -0.09387247 0.05828823
vt -0.08846341 0.04015253
vt -0.08661865 0.03938355
vt -0.004552637 0.0854299
vt -0.00520744 0.08521169
vt 0.0005038356 0.06716914
vt 0.001157876 0.06738689
vt 0.09388918 0.05823736
vt 0.09209842 0.05734672
vt 0.08661617 0.03933733
vt 0.08846018 0.04010804
vt -0.0230792 0.0110358
vt -0.02373529 0.01125012
vt -0.02497396 0.007458153
vt -0.02431788 0.007243835
vt -0.008041914 0.08579512
vt -0.0135488 0.06784074
vt -0.005920758 0.06542973
vt 0.006402922 0.06620161
vt 0.01270267 0.06819253
vt 0.007217257 0.0862054
vt -0.08612774 0.03828486
vt -0.08798285 0.0390323
vt -0.08947365 0.03533218
vt -0.08761854 0.03458474
vt 0.03068293 0.01351945
vt 0.03001473 0.01330118
vt 0.0312534 0.009509211
vt 0.0319216 0.009727482
vt 0.08798282 0.03903225
vt 0.08612771 0.03828481
vt 0.08761851 0.03458469
vt 0.08947362 0.03533213
vt -0.03395109 0.09373747
vt -0.03340506 0.09418017
vt -0.03466462 0.09573375
vt -0.03521065 0.09529105
vt 0.03068281 0.01351971
vt 0.03001462 0.01330144
vt 0.0312533 0.009509473
vt 0.03192149 0.009727744
vt 0.03001479 0.01330152
vt 0.0237345 0.01125005
vt 0.02497317 0.00745808
vt 0.03125347 0.00950955
vt 0.02373521 0.01125039
vt 0.02307912 0.01103608
vt 0.02431781 0.007244112
vt 0.0249739 0.007458428
vt 0.08612755 0.03828455
vt 0.08520002 0.03791084
vt 0.0866908 0.03421072
vt 0.08761833 0.03458442
vt -0.02307852 0.01103578
vt -0.03068309 0.01351984
vt -0.03192177 0.009727874
vt -0.0243172 0.007243814
vt -0.03277566 0.09340326
vt -0.03340543 0.09418003
vt -0.03395145 0.09373733
vt -0.03908348 0.08957645
vt -0.03961961 0.08914177
vt -0.03898984 0.088365
vt -0.08612746 0.03828442
vt -0.08798256 0.03903184
vt -0.08947334 0.03533172
vt -0.08761825 0.0345843
vt 0.02373484 0.01124994
vt 0.02307875 0.01103563
vt 0.02431742 0.007243657
vt 0.02497351 0.007457972
vt 0.08798256 0.03903183
vt 0.08612745 0.03828441
vt 0.08761824 0.03458428
vt 0.08947334 0.03533171
vt -0.03961898 0.08914205
vt -0.03908285 0.08957674
vt -0.04034242 0.09113029
vt -0.04087855 0.0906956
vt 0.08804853 0.06316235
vt 0.08765388 0.06395167
vt 0.0751319 0.05769067
vt 0.07552656 0.05690135
vt 0.03834965 0.1041001
vt 0.03778042 0.1045066
vt 0.02964313 0.09311435
vt 0.03021236 0.09270775
vt -0.01556865 0.02467373
vt -0.02153942 0.02680614
vt -0.02181679 0.02601981
vt -0.01575395 0.02380881
vt -0.0876539 0.06395168
vt -0.0880247 0.06321008
vt -0.07550272 0.05694907
vt -0.07513192 0.05769067
vt -0.03860285 0.1042385
vt -0.03917114 0.103825
vt -0.03093432 0.09250445
vt -0.03036603 0.09291793
vt 0.08801075 0.06325936
vt 0.08763827 0.06400536
vt 0.07511281 0.0577513
vt 0.0754853 0.05700529
vt -0.02153937 0.02680613
vt -0.02219815 0.02704141
vt -0.02247702 0.02626058
vt -0.02181675 0.02601979
vt 0.04429054 0.09985665
vt 0.04350907 0.1004148
vt 0.04249191 0.09899081
vt 0.04198333 0.09827878
vt 0.04147475 0.09756677
vt 0.04045758 0.09614273
vt 0.03994899 0.09543071
vt 0.03944042 0.09471869
vt 0.03842325 0.09329467
vt 0.03791467 0.09258265
vt 0.03740608 0.09187063
vt 0.03537175 0.08902256
vt 0.03615322 0.08846437
vt -0.08735175 0.06522293
vt -0.08773553 0.06442596
vt -0.08615883 0.06366669
vt -0.08577504 0.06446365
vt -0.04438972 0.100028
vt -0.04507216 0.09953149
vt -0.03683529 0.08821097
vt -0.03615286 0.08870751
vt -0.03821208 0.09153764
vt -0.03872688 0.09224518
vt -0.03924169 0.09295271
vt -0.04027129 0.09436776
vt -0.04078609 0.09507529
vt -0.0413009 0.09578283
vt -0.04233051 0.09719791
vt -0.04284531 0.09790543
vt -0.04336011 0.09861296
vt -0.01496103 0.02351964
vt -0.01466422 0.02435072
vt -0.01556861 0.02467372
vt -0.01575391 0.02380879
vt -0.08142871 0.06138887
vt -0.079852 0.0606296
vt -0.07946823 0.06142656
vt -0.08104493 0.06218583
vt -0.08458213 0.06290742
vt -0.08300541 0.06214814
vt -0.08262163 0.06294511
vt -0.08419834 0.06370439
vt -0.07827529 0.05987032
vt -0.07512189 0.05835177
vt -0.0747381 0.05914874
vt -0.07789151 0.06066728
vt -0.08615883 0.06366669
vt -0.08537047 0.06328706
vt -0.08498669 0.06408402
vt -0.08577504 0.06446365
vt -0.08300541 0.06214814
vt -0.08221705 0.0617685
vt -0.08183327 0.06256546
vt -0.08262163 0.06294511
vt -0.079852 0.0606296
vt -0.07906365 0.06024996
vt -0.07867987 0.06104692
vt -0.07946823 0.06142656
vt -0.0390721 0.09211323
vt -0.0385543 0.09140788
vt -0.03290378 0.09555586
vt -0.03342158 0.09626122
vt -0.04114318 0.09493465
vt -0.04062539 0.0942293
vt -0.03497487 0.09837729
vt -0.03549265 0.09908263
vt -0.04351847 0.0976318
vt -0.04299822 0.09692827
vt -0.03746693 0.1010185
vt -0.03798718 0.101722
vt -0.01575362 0.02380879
vt -0.01556833 0.02467372
vt -0.02201715 0.02706907
vt -0.02220245 0.02620414
vt 0.04289565 0.09700412
vt 0.0434159 0.09770765
vt 0.0378846 0.1017979
vt 0.03736436 0.1010943
vt 0.01556834 0.02467367
vt 0.01575364 0.02380874
vt 0.02220247 0.02620409
vt 0.02201717 0.02706903
vt -0.08494039 0.06418018
vt -0.08415204 0.06380055
vt -0.08376826 0.06459751
vt -0.0845566 0.06497715
vt -0.01575365 0.02380874
vt -0.01556835 0.02467367
vt -0.02214585 0.02709661
vt -0.02233115 0.02623168
vt 0.04052445 0.09430341
vt 0.04104224 0.09500875
vt 0.03539171 0.09915673
vt 0.03487393 0.09845139
vt 0.01556834 0.0246737
vt 0.01575364 0.02380877
vt 0.02233114 0.02623172
vt 0.02214584 0.02709665
vt -0.08178695 0.06266166
vt -0.08099861 0.06228203
vt -0.08061482 0.06307899
vt -0.08140317 0.06345863
vt -0.01575367 0.02380866
vt -0.01556837 0.02467359
vt -0.02214587 0.02709654
vt -0.02233117 0.02623161
vt 0.03845347 0.0914819
vt 0.03897127 0.09218726
vt 0.03332075 0.09633524
vt 0.03280295 0.09562989
vt 0.01556836 0.02467362
vt 0.01575366 0.02380869
vt 0.02233116 0.02623164
vt 0.02214586 0.02709657
vt -0.07863355 0.06114313
vt -0.07784519 0.06076349
vt -0.07746141 0.06156045
vt -0.07824977 0.06194009
o group2139467000
g mesh2139467000
usemtl mat8
f 5/5/1 4/4/1 3/3/1 2/2/1 1/1/1
f 10/10/2 9/9/2 8/8/2 7/7/2 6/6/2
f 2/16/3 12/15/3 11/14/3 10/13/3 6/12/3 1/11/3
f 14/20/4 13/19/4 4/18/4 5/17/4
f 16/24/5 15/23/5 5/22/5 1/21/5
f 4/32/6 20/31/6 19/30/6 8/29/6 9/28/6 18/27/6 17/26/6 3/25/6
f 22/36/7 21/35/7 19/34/7 20/33/7
f 24/40/8 23/39/8 8/38/8 19/37/8
f 13/44/9 25/43/9 20/42/9 4/41/9
f 25/48/10 26/47/10 22/46/10 20/45/10
f 28/52/11 27/51/11 5/50/11 22/49/11
f 26/56/12 25/55/12 13/54/12 14/53/12
f 23/60/13 29/59/13 7/58/13 8/57/13
f 32/68/15 24/67/15 19/66/15 21/65/15
f 32/72/16 29/71/16 23/70/16 24/69/16
f 27/76/17 33/75/17 14/74/17 5/73/17
f 33/80/18 34/79/18 26/78/18 14/77/18
f 34/84/19 28/83/19 22/82/19 26/81/19
f 15/92/21 37/91/21 22/90/21 5/89/21
f 38/95/22 21/94/22 22/93/22
f 38/99/23 39/98/23 7/97/23 21/96/23
f 39/103/24 40/102/24 6/101/24 7/100/24
f 40/106/25 1/105/25 6/104/25
f 42/110/26 41/109/26 15/108/26 16/107/26
f 30/114/27 43/113/27 32/112/27 21/111/27
f 43/118/28 44/117/28 29/116/28 32/115/28
f 44/122/29 31/121/29 7/120/29 29/119/29
f 40/129/31 16/128/31 1/127/31
f 22/132/32 37/131/32 38/130/32
f 35/136/33 47/135/33 33/134/33 27/133/33
f 47/140/34 48/139/34 34/138/34 33/137/34
f 48/144/35 36/143/35 28/142/35 34/141/35
f 48/148/36 47/147/36 35/146/36 36/145/36
f 49/156/38 50/155/38 38/154/38 37/153/38
f 51/164/40 52/163/40 40/162/40 39/161/40
f 52/168/41 42/167/41 16/166/41 40/165/41
f 52/174/42 51/173/42 50/172/42 49/171/42 41/170/42 42/169/42
f 45/178/43 53/177/43 43/176/43 30/175/43
f 53/182/44 54/181/44 44/180/44 43/179/44
f 54/186/45 46/185/45 31/184/45 44/183/45
f 54/190/46 53/189/46 45/188/46 46/187/46
f 11/202/49 12/201/49 17/200/49 18/199/49
usemtl mat21
f 31/64/14 30/63/14 21/62/14 7/61/14
f 36/88/20 35/87/20 27/86/20 28/85/20
f 46/126/30 45/125/30 30/124/30 31/123/30
f 41/152/37 49/151/37 37/150/37 15/149/37
f 50/160/39 51/159/39 39/158/39 38/157/39
usemtl mat12
f 56/194/47 55/193/47 9/192/47 10/191/47
f 58/198/48 57/197/48 3/196/48 17/195/48
f 57/206/50 59/205/50 2/204/50 3/203/50
f 59/210/51 60/209/51 12/208/51 2/207/51
f 60/214/52 58/213/52 17/212/52 12/211/52
f 60/218/53 59/217/53 57/216/53 58/215/53
f 55/231/54 70/230/54 69/229/54 68/228/54 67/227/54 66/226/54 65/225/54 64/224/54 63/223/54 62/222/54 61/221/54 18/220/54 9/219/54
f 61/235/55 71/234/55 11/233/55 18/232/55
f 71/248/56 80/247/56 79/246/56 78/245/56 77/244/56 76/243/56 75/242/56 74/241/56 73/240/56 72/239/56 56/238/56 10/237/56 11/236/56
f 72/252/57 70/251/57 55/250/57 56/249/57
f 66/256/58 67/255/58 75/254/58 76/253/58
f 63/260/59 64/259/59 78/258/59 79/257/59
f 69/264/60 70/263/60 72/262/60 73/261/60
f 61/268/61 62/267/61 80/266/61 71/265/61
f 64/272/62 65/271/62 77/270/62 78/269/62
f 67/276/63 68/275/63 74/274/63 75/273/63
f 82/280/64 81/279/64 73/278/64 74/277/64
f 84/284/65 83/283/65 76/282/65 77/281/65
f 86/288/66 85/287/66 79/286/66 80/285/66
f 85/292/67 87/291/67 63/290/67 79/289/67
f 87/296/68 88/295/68 62/294/68 63/293/68
f 88/300/69 86/299/69 80/298/69 62/297/69
f 88/304/70 87/303/70 85/302/70 86/301/70
f 83/308/71 89/307/71 66/306/71 76/305/71
f 89/312/72 90/311/72 65/310/72 66/309/72
f 90/316/73 84/315/73 77/314/73 65/313/73
f 90/320/74 89/319/74 83/318/74 84/317/74
f 81/324/75 91/323/75 69/322/75 73/321/75
f 91/328/76 92/327/76 68/326/76 69/325/76
f 92/332/77 82/331/77 74/330/77 68/329/77
f 92/336/78 91/335/78 81/334/78 82/333/78
